<?xml version="1.0" encoding="iso-8859-1"?>
<!-- Uploaded to: SVG Repo, www.svgrepo.com, Generator: SVG Repo Mixer Tools -->
<svg height="800px" width="800px" version="1.1" id="Layer_1" xmlns="http://www.w3.org/2000/svg" xmlns:xlink="http://www.w3.org/1999/xlink" 
	 viewBox="0 0 494.82 494.82" xml:space="preserve">
<g>
	<path style="fill:#006DF0;" d="M152.41,314.82h8.85v-70h-8.85c-68.92,0-125,56.07-125,125h70
		C97.41,339.49,122.08,314.82,152.41,314.82z"/>
	<path style="fill:#006DF0;" d="M308.18,284.99c-14,0-25.39-11.39-25.39-25.38v-14.79h-10v44.61c0,14-11.38,25.39-25.38,25.39h95
		c30.33,0,55,24.67,55,55h70c0-68.93-56.08-125-125-125h-8.85v14.79C333.56,273.6,322.17,284.99,308.18,284.99z"/>
	<path style="fill:#006DF0;" d="M222.03,289.43v-44.61h-10v70h35.38C233.41,314.82,222.03,303.43,222.03,289.43z"/>
	<path style="fill:#004FAC;" d="M397.41,369.82c0,30.32-24.67,55-55,55h-190c-30.33,0-55-24.68-55-55h-70c0,68.92,56.08,125,125,125
		h190c68.92,0,125-56.08,125-125H397.41z"/>
	<path style="fill:#FFFFFF;" d="M342.41,314.82H212.03v29.61c0,14-11.39,25.39-25.39,25.39h210.77
		C397.41,339.49,372.74,314.82,342.41,314.82z"/>
	<path style="fill:#FFFFFF;" d="M161.26,344.43v-29.61h-8.85c-30.33,0-55,24.67-55,55h89.23
		C172.65,369.82,161.26,358.43,161.26,344.43z"/>
	<path style="fill:#D8D7DA;" d="M97.41,369.82c0,30.32,24.67,55,55,55h190c30.33,0,55-24.68,55-55H97.41z"/>
	<path style="fill:#FFCD00;" d="M343.56,221.74c0,14,11.39,25.38,25.39,25.38c13.99,0,25.38-11.38,25.38-25.38v-33.52h-50.77V221.74
		z"/>
	<path style="fill:#FFDA44;" d="M394.33,188.22v-76.84c0-48.24-22.13-99.11-27.81-111.38H128.31
		c-5.69,12.27-27.82,63.2-27.82,111.38v2.72h60.77v74.12H394.33z"/>
	<path style="fill:#FFCD00;" d="M282.79,259.61c0,13.99,11.39,25.38,25.39,25.38c13.99,0,25.38-11.39,25.38-25.38v-71.39h-50.77
		V259.61z"/>
	<path style="fill:#FFCD00;" d="M222.03,289.43c0,14,11.38,25.39,25.38,25.39s25.38-11.39,25.38-25.39V188.22h-50.76V289.43z"/>
	<path style="fill:#FFCD00;" d="M161.26,344.43c0,14,11.39,25.39,25.38,25.39c14,0,25.39-11.39,25.39-25.39V188.22h-50.77V344.43z"
		/>
	<path style="fill:#FFCD00;" d="M100.49,114.1v76.07c0,13.99,11.39,25.38,25.38,25.38c14,0,25.39-11.39,25.39-25.38V114.1H100.49z"
		/>
</g>
</svg>